{
  "accessors": [
    {
      "name": "Tube004_1_0_positions",
      "componentType": 5126,
      "count": 3054,
      "min": [
        3.768699884414673,
        0.11729999631643295,
        -22.20840072631836
      ],
      "max": [
        6.704699993133545,
        15.030400276184082,
        27.759300231933594
      ],
      "type": "VEC3",
      "bufferView": 0,
      "byteOffset": 0
    },
    {
      "name": "Tube004_1_0_normals",
      "componentType": 5126,
      "count": 3054,
      "min": [
        -1,
        -1,
        -0.9985353946685791
      ],
      "max": [
        1,
        1,
        1
      ],
      "type": "VEC3",
      "bufferView": 1,
      "byteOffset": 0
    },
    {
      "name": "Tube004_1_0_texcoords",
      "componentType": 5126,
      "count": 3054,
      "min": [
        0,
        0
      ],
      "max": [
        1.083299994468689,
        1
      ],
      "type": "VEC2",
      "bufferView": 2,
      "byteOffset": 0
    },
    {
      "name": "Tube004_1_0_indices",
      "componentType": 5123,
      "count": 7656,
      "min": [
        0
      ],
      "max": [
        3053
      ],
      "type": "SCALAR",
      "bufferView": 3,
      "byteOffset": 0
    },
    {
      "name": "Tube004_1_1_positions",
      "componentType": 5126,
      "count": 1466,
      "min": [
        0.675000011920929,
        4.8242998123168945,
        -15.00730037689209
      ],
      "max": [
        8.86970043182373,
        22.40559959411621,
        15.382100105285645
      ],
      "type": "VEC3",
      "bufferView": 0,
      "byteOffset": 36648
    },
    {
      "name": "Tube004_1_1_normals",
      "componentType": 5126,
      "count": 1466,
      "min": [
        -1,
        -1,
        -0.99998539686203
      ],
      "max": [
        1,
        1,
        0.9987543225288391
      ],
      "type": "VEC3",
      "bufferView": 1,
      "byteOffset": 36648
    },
    {
      "name": "Tube004_1_1_texcoords",
      "componentType": 5126,
      "count": 1466,
      "min": [
        -4.283899784088135,
        -4.060999870300293
      ],
      "max": [
        12.583399772644043,
        5.729100227355957
      ],
      "type": "VEC2",
      "bufferView": 2,
      "byteOffset": 24432
    },
    {
      "name": "Tube004_1_1_indices",
      "componentType": 5123,
      "count": 2028,
      "min": [
        0
      ],
      "max": [
        1465
      ],
      "type": "SCALAR",
      "bufferView": 3,
      "byteOffset": 15312
    },
    {
      "name": "Tube004_1_2_positions",
      "componentType": 5126,
      "count": 90,
      "min": [
        2.595400094985962,
        14.353400230407715,
        -10.15410041809082
      ],
      "max": [
        7.076499938964844,
        21.397499084472656,
        7.106900215148926
      ],
      "type": "VEC3",
      "bufferView": 0,
      "byteOffset": 54240
    },
    {
      "name": "Tube004_1_2_normals",
      "componentType": 5126,
      "count": 90,
      "min": [
        -1,
        -1,
        -1
      ],
      "max": [
        1,
        1,
        1
      ],
      "type": "VEC3",
      "bufferView": 1,
      "byteOffset": 54240
    },
    {
      "name": "Tube004_1_2_texcoords",
      "componentType": 5126,
      "count": 90,
      "min": [
        0,
        0
      ],
      "max": [
        1.083299994468689,
        1
      ],
      "type": "VEC2",
      "bufferView": 2,
      "byteOffset": 36160
    },
    {
      "name": "Tube004_1_2_indices",
      "componentType": 5123,
      "count": 228,
      "min": [
        0
      ],
      "max": [
        89
      ],
      "type": "SCALAR",
      "bufferView": 3,
      "byteOffset": 19368
    },
    {
      "name": "Tube004_1_3_positions",
      "componentType": 5126,
      "count": 2818,
      "min": [
        -1.7721999883651733,
        1.5388000011444092,
        -20.78070068359375
      ],
      "max": [
        11.662500381469727,
        23.662599563598633,
        26.331499099731445
      ],
      "type": "VEC3",
      "bufferView": 0,
      "byteOffset": 55320
    },
    {
      "name": "Tube004_1_3_normals",
      "componentType": 5126,
      "count": 2818,
      "min": [
        -1,
        -1,
        -1
      ],
      "max": [
        1,
        1,
        1
      ],
      "type": "VEC3",
      "bufferView": 1,
      "byteOffset": 55320
    },
    {
      "name": "Tube004_1_3_texcoords",
      "componentType": 5126,
      "count": 2818,
      "min": [
        -6.850599765777588,
        -8.55519962310791
      ],
      "max": [
        6.584099769592285,
        10.32509994506836
      ],
      "type": "VEC2",
      "bufferView": 2,
      "byteOffset": 36880
    },
    {
      "name": "Tube004_1_3_indices",
      "componentType": 5123,
      "count": 6576,
      "min": [
        0
      ],
      "max": [
        2817
      ],
      "type": "SCALAR",
      "bufferView": 3,
      "byteOffset": 19824
    },
    {
      "name": "Tube004_1_4_positions",
      "componentType": 5126,
      "count": 116,
      "min": [
        -2.524899959564209,
        22.829299926757812,
        7.288899898529053
      ],
      "max": [
        13.230500221252441,
        23.821800231933594,
        10.195699691772461
      ],
      "type": "VEC3",
      "bufferView": 0,
      "byteOffset": 89136
    },
    {
      "name": "Tube004_1_4_normals",
      "componentType": 5126,
      "count": 116,
      "min": [
        -0.906313419342041,
        -0.9749249219894409,
        -0.906313419342041
      ],
      "max": [
        0.906313419342041,
        0.9749249219894409,
        0.906313419342041
      ],
      "type": "VEC3",
      "bufferView": 1,
      "byteOffset": 89136
    },
    {
      "name": "Tube004_1_4_texcoords",
      "componentType": 5126,
      "count": 116,
      "min": [
        0.012500000186264515,
        0
      ],
      "max": [
        1.0356999635696411,
        1
      ],
      "type": "VEC2",
      "bufferView": 2,
      "byteOffset": 59424
    },
    {
      "name": "Tube004_1_4_indices",
      "componentType": 5123,
      "count": 312,
      "min": [
        0
      ],
      "max": [
        115
      ],
      "type": "SCALAR",
      "bufferView": 3,
      "byteOffset": 32976
    },
    {
      "name": "Tube004_1_5_positions",
      "componentType": 5126,
      "count": 59,
      "min": [
        3.404099941253662,
        19.493499755859375,
        14.620200157165527
      ],
      "max": [
        6.33650016784668,
        22.24810028076172,
        15.105899810791016
      ],
      "type": "VEC3",
      "bufferView": 0,
      "byteOffset": 90528
    },
    {
      "name": "Tube004_1_5_normals",
      "componentType": 5126,
      "count": 59,
      "min": [
        0,
        0.17360277473926544,
        0.9847986698150635
      ],
      "max": [
        0,
        0.1736997663974762,
        0.984815776348114
      ],
      "type": "VEC3",
      "bufferView": 1,
      "byteOffset": 90528
    },
    {
      "name": "Tube004_1_5_texcoords",
      "componentType": 5126,
      "count": 59,
      "min": [
        0,
        0.0908999964594841
      ],
      "max": [
        1,
        0.9090999960899353
      ],
      "type": "VEC2",
      "bufferView": 2,
      "byteOffset": 60352
    },
    {
      "name": "Tube004_1_5_indices",
      "componentType": 5123,
      "count": 108,
      "min": [
        0
      ],
      "max": [
        58
      ],
      "type": "SCALAR",
      "bufferView": 3,
      "byteOffset": 33600
    }
  ],
  "asset": {
    "generator": "obj2gltf",
    "version": "2.0"
  },
  "buffers": [
    {
      "name": "bike",
      "byteLength": 277112,
      "uri": "bike.bin"
    }
  ],
  "bufferViews": [
    {
      "name": "bufferView_0",
      "buffer": 0,
      "byteLength": 91236,
      "byteOffset": 0,
      "byteStride": 12,
      "target": 34962
    },
    {
      "name": "bufferView_1",
      "buffer": 0,
      "byteLength": 91236,
      "byteOffset": 91236,
      "byteStride": 12,
      "target": 34962
    },
    {
      "name": "bufferView_2",
      "buffer": 0,
      "byteLength": 60824,
      "byteOffset": 182472,
      "byteStride": 8,
      "target": 34962
    },
    {
      "name": "bufferView_3",
      "buffer": 0,
      "byteLength": 33816,
      "byteOffset": 243296,
      "target": 34963
    }
  ],
  "materials": [
    {
      "name": "19___Default",
      "pbrMetallicRoughness": {
        "baseColorFactor": [
          0.0078,
          0.0078,
          0.0078,
          1
        ],
        "metallicFactor": 0,
        "roughnessFactor": 0.99
      },
      "emissiveFactor": [
        0,
        0,
        0
      ],
      "alphaMode": "OPAQUE",
      "doubleSided": false
    },
    {
      "name": "01___Default",
      "pbrMetallicRoughness": {
        "baseColorFactor": [
          0.7569,
          0.3451,
          0.0078,
          1
        ],
        "metallicFactor": 0,
        "roughnessFactor": 0.99
      },
      "emissiveFactor": [
        0,
        0,
        0
      ],
      "alphaMode": "OPAQUE",
      "doubleSided": false
    },
    {
      "name": "21___Default",
      "pbrMetallicRoughness": {
        "baseColorFactor": [
          0.4,
          0.0353,
          0.0353,
          1
        ],
        "metallicFactor": 0,
        "roughnessFactor": 0.99
      },
      "emissiveFactor": [
        0,
        0,
        0
      ],
      "alphaMode": "OPAQUE",
      "doubleSided": false
    },
    {
      "name": "13___Default",
      "pbrMetallicRoughness": {
        "baseColorFactor": [
          0.0902,
          0.0902,
          0.0902,
          1
        ],
        "metallicFactor": 0,
        "roughnessFactor": 0.99
      },
      "emissiveFactor": [
        0,
        0,
        0
      ],
      "alphaMode": "OPAQUE",
      "doubleSided": false
    },
    {
      "name": "08___Default",
      "pbrMetallicRoughness": {
        "baseColorFactor": [
          1,
          1,
          1,
          1
        ],
        "metallicFactor": 0,
        "roughnessFactor": 0.99
      },
      "emissiveFactor": [
        0,
        0,
        0
      ],
      "alphaMode": "OPAQUE",
      "doubleSided": false
    },
    {
      "name": "02___Default",
      "pbrMetallicRoughness": {
        "baseColorFactor": [
          0.0314,
          0.1098,
          0.451,
          1
        ],
        "metallicFactor": 0,
        "roughnessFactor": 0.99
      },
      "emissiveFactor": [
        0,
        0,
        0
      ],
      "alphaMode": "OPAQUE",
      "doubleSided": false
    }
  ],
  "meshes": [
    {
      "name": "Tube004_1",
      "primitives": [
        {
          "attributes": {
            "POSITION": 0,
            "NORMAL": 1,
            "TEXCOORD_0": 2
          },
          "indices": 3,
          "material": 0,
          "mode": 4
        },
        {
          "attributes": {
            "POSITION": 4,
            "NORMAL": 5,
            "TEXCOORD_0": 6
          },
          "indices": 7,
          "material": 1,
          "mode": 4
        },
        {
          "attributes": {
            "POSITION": 8,
            "NORMAL": 9,
            "TEXCOORD_0": 10
          },
          "indices": 11,
          "material": 2,
          "mode": 4
        },
        {
          "attributes": {
            "POSITION": 12,
            "NORMAL": 13,
            "TEXCOORD_0": 14
          },
          "indices": 15,
          "material": 3,
          "mode": 4
        },
        {
          "attributes": {
            "POSITION": 16,
            "NORMAL": 17,
            "TEXCOORD_0": 18
          },
          "indices": 19,
          "material": 4,
          "mode": 4
        },
        {
          "attributes": {
            "POSITION": 20,
            "NORMAL": 21,
            "TEXCOORD_0": 22
          },
          "indices": 23,
          "material": 5,
          "mode": 4
        }
      ]
    }
  ],
  "nodes": [
    {
      "name": "Tube004",
      "mesh": 0
    }
  ],
  "scene": 0,
  "scenes": [
    {
      "nodes": [
        0
      ]
    }
  ]
}
